PathFileType	4	(X/Y/Z)	 s07c0102.trc
DataRate	CameraRate	NumFrames	NumMarkers	Units	OrigDataRate	OrigDataStartFrame	OrigNumFrames
200	200	5	48	mm	200	1501	2000
Frame#	Time	racr			lacr			c7			jug			rlel			rdr			llel			ldr			s2			lic			ric			lasi			rasi			rpsi			lpsi			rgt			lgt			rth1			rth2			rth3			rth4			rlfc			rmfc			rsh1			rsh2			rsh3			rsh4			rlmal			rcal			rtoe			rmt5			lth1			lth2			lth4			lth3			llfc			lmfc			lsh1			lsh2			lsh3			lsh4			llmal			lcal			ltoe			lmt5			SBIKE			LBIKE			RBIKE			
		X1	Y1	Z1	X2	Y2	Z2	X3	Y3	Z3	X4	Y4	Z4	X5	Y5	Z5	X6	Y6	Z6	X7	Y7	Z7	X8	Y8	Z8	X9	Y9	Z9	X10	Y10	Z10	X11	Y11	Z11	X12	Y12	Z12	X13	Y13	Z13	X14	Y14	Z14	X15	Y15	Z15	X16	Y16	Z16	X17	Y17	Z17	X18	Y18	Z18	X19	Y19	Z19	X20	Y20	Z20	X21	Y21	Z21	X22	Y22	Z22	X23	Y23	Z23	X24	Y24	Z24	X25	Y25	Z25	X26	Y26	Z26	X27	Y27	Z27	X28	Y28	Z28	X29	Y29	Z29	X30	Y30	Z30	X31	Y31	Z31	X32	Y32	Z32	X33	Y33	Z33	X34	Y34	Z34	X35	Y35	Z35	X36	Y36	Z36	X37	Y37	Z37	X38	Y38	Z38	X39	Y39	Z39	X40	Y40	Z40	X41	Y41	Z41	X42	Y42	Z42	X43	Y43	Z43	X44	Y44	Z44	X45	Y45	Z45	X46	Y46	Z46	X47	Y47	Z47	X48	Y48	Z48	
1501	7.5050	523.187471	1370.598687	-132.920371	494.456262	1391.582516	-376.043618	471.850961	1425.237310	-250.962724	436.910997	1275.407931	-258.978747	498.418990	1073.960993	59.478146	716.381059	914.349482	-46.752152	509.787146	1085.741816	-535.712274	723.265067	916.939447	-411.442962	-125.065309	1213.742842	-196.851254	8.389082	1297.931303	-345.658680	73.603966	1230.898792	-71.895124	41.853602	1219.535213	-339.402307	81.894082	1182.541951	-93.205942	-87.322798	1246.697464	-145.414854	-98.325629	1273.846738	-245.617805	10.752172	1099.531871	-37.768884	-33.335119	1145.827429	-394.914415	126.863234	993.456352	-43.222251	196.727229	942.139830	-56.181846	235.140339	865.753622	-59.017216	221.247847	965.024037	-72.821212	303.348973	750.043733	-92.801707	285.157197	738.263169	-197.084256	208.038302	644.617054	-68.428711	169.734095	566.148939	-82.860404	98.285025	515.435690	-78.164454	182.790627	557.259667	-121.273921	4.378671	416.031092	-76.129500	-67.703479	429.181365	-106.347859	128.524685	214.601165	-123.427178	50.455271	244.334855	-53.257088	70.268493	1066.543179	-404.332039	156.283136	1045.591003	-404.821088	173.776390	1076.704436	-395.418902	220.743795	984.144813	-402.032805	363.447738	877.996278	-370.025083	358.087256	854.193145	-272.703094	317.830935	733.879214	-396.373660	311.830215	649.547416	-380.357779	265.112943	573.168801	-389.554613	316.680946	649.179949	-337.931247	212.776132	446.390439	-392.942164	145.393258	396.437557	-363.550240	434.401165	415.132233	-353.282053	358.796040	378.783223	-420.172712	-259.591211	972.965892	-231.539297	-75.957875	83.596765	-438.292545	-82.797318	79.170730	-40.824404	
1502	7.5100	522.478737	1371.394110	-130.721897	495.661139	1391.088318	-375.141451	472.425209	1424.872620	-249.808445	437.788144	1274.915988	-256.863697	498.453329	1073.604215	59.997700	716.367174	914.320536	-46.553906	510.141867	1085.250222	-535.549621	723.586644	916.545735	-411.189363	-124.859424	1212.503700	-198.882079	9.783514	1295.108560	-347.745147	73.553909	1229.731127	-74.062957	42.236049	1216.437501	-340.977108	81.843694	1181.826728	-95.060441	-87.293072	1245.465250	-147.551526	-97.966164	1272.224189	-248.232352	11.251815	1099.527670	-38.934905	-33.587583	1141.860804	-396.133875	128.843793	996.773629	-45.724157	200.671316	947.619366	-57.167370	241.268515	872.272571	-58.960403	224.826924	971.445209	-73.239723	310.837358	757.281150	-92.842426	293.614058	744.719765	-196.920672	214.655141	653.039340	-68.409576	175.124373	575.046587	-82.649026	103.600735	525.426591	-77.851368	188.631745	565.510603	-120.679946	9.164922	427.563444	-75.159046	-62.939511	443.015411	-106.444827	125.603467	221.814278	-122.600553	47.865386	253.694419	-53.434262	68.100323	1059.199030	-405.446915	153.377253	1035.401733	-406.393268	171.789216	1066.026845	-397.913403	215.986736	972.153761	-402.986839	355.670071	862.493481	-371.322102	350.247755	840.930341	-274.465932	312.716342	717.458571	-396.845005	308.231673	632.997152	-380.054129	262.910695	555.469974	-389.656641	310.879243	634.243493	-337.720138	212.928645	429.169678	-393.401888	146.348979	378.256065	-363.870363	434.786871	406.066880	-352.822330	359.969932	367.950079	-420.288621	-259.467570	972.968685	-231.681657	-75.926685	83.516509	-438.336612	-82.772684	79.161674	-40.858389	
1503	7.5150	521.546716	1372.398857	-128.413195	496.912217	1390.991789	-374.248080	472.738050	1425.140408	-248.598059	438.165939	1275.131064	-255.005437	498.644524	1073.620365	60.643110	716.267498	914.448011	-45.951595	510.905669	1085.209379	-535.472167	723.802317	916.298928	-410.797690	-124.574504	1211.112038	-201.246388	11.216918	1292.127008	-350.066896	73.421429	1228.971126	-76.676928	42.892561	1213.341321	-343.082997	81.694459	1181.245824	-96.904727	-87.304210	1244.291601	-149.879766	-97.509779	1270.520467	-251.222889	11.793830	1099.550099	-40.143366	-33.552868	1137.937874	-397.604544	131.664168	1000.573779	-47.039380	204.771317	953.210970	-57.967079	247.105174	878.933301	-59.028683	228.265747	977.418778	-74.082505	318.710720	764.706905	-92.823187	302.107377	751.675307	-196.850380	221.299494	661.701104	-68.470631	180.916490	584.028945	-82.432045	108.812605	535.380509	-77.578345	194.783306	574.024670	-120.077378	13.303164	438.214516	-75.199831	-57.584335	456.599407	-106.529881	122.261951	228.008954	-123.022064	46.060580	263.379270	-53.311242	65.947123	1051.715831	-406.475229	150.473554	1025.421145	-407.856814	169.868067	1055.541929	-400.171319	211.228171	960.480235	-403.657601	348.335521	847.377045	-372.535543	340.718062	821.522368	-276.286509	307.574456	702.139669	-397.439934	304.451651	617.644060	-379.752691	260.635723	539.337792	-389.315163	305.715800	619.500060	-337.602307	212.957781	412.777644	-393.939858	147.537463	360.488852	-363.925302	434.662260	397.427555	-353.440747	360.730170	357.078945	-420.512337	-259.416276	972.962802	-231.960388	-75.896546	83.430836	-438.339729	-82.767398	79.173228	-40.876961	
1504	7.5200	520.617597	1373.921384	-125.181268	498.195052	1391.356629	-373.365018	472.795008	1425.864533	-247.395848	438.879880	1275.663722	-252.978304	498.975825	1073.993608	61.426230	716.426094	914.325607	-45.891859	511.962246	1085.670344	-535.625380	724.011714	916.183790	-410.505678	-124.258257	1209.815981	-203.876778	13.144193	1288.990658	-352.812969	73.093774	1228.324416	-78.968316	43.638570	1210.189589	-345.367018	81.572099	1180.849781	-98.847188	-87.273100	1243.136622	-152.497974	-97.078716	1268.781725	-254.380041	12.383065	1099.676592	-41.557256	-33.250465	1134.066934	-399.273044	134.587724	1004.392085	-48.026835	208.968043	958.740060	-58.680014	253.202894	885.620030	-59.128955	231.768215	983.631776	-75.021436	326.565928	772.373522	-92.910143	310.350314	758.747729	-196.962820	228.319774	670.538643	-68.563589	187.091283	593.192024	-82.175783	114.121288	545.312008	-77.472787	201.248679	582.615167	-119.485342	18.546963	448.831711	-74.814030	-51.608965	469.822853	-106.490847	119.884249	234.976705	-122.911998	44.884778	272.852343	-53.413452	64.119938	1044.759135	-407.539586	147.801612	1016.086157	-409.199241	168.085436	1045.597793	-402.166053	206.668133	949.387384	-404.127707	341.424525	833.599069	-373.196377	333.726124	810.696176	-277.780167	302.530249	688.675008	-398.029914	300.535934	604.672129	-379.950650	258.530199	525.537097	-390.632949	302.186419	607.564251	-338.803570	212.474139	397.457970	-394.105352	147.858193	343.974630	-363.907484	433.784861	388.539202	-354.137888	361.045988	346.084715	-420.591106	-259.348619	972.942314	-232.247481	-75.871276	83.374533	-438.366605	-82.748737	79.123348	-40.902593	
1505	7.5250	519.196696	1375.559249	-122.679991	499.406950	1391.989699	-372.357906	472.676388	1427.097706	-246.139511	438.658812	1276.897500	-251.333799	499.201196	1074.684751	62.294946	716.373678	914.374030	-45.670432	513.399094	1086.528924	-535.809787	724.211142	916.134663	-410.435601	-123.827222	1208.628350	-206.723174	14.719330	1286.028192	-355.882416	72.677044	1228.019290	-81.093894	44.638492	1207.195509	-347.779320	81.440968	1180.860119	-100.713445	-87.256431	1242.044837	-155.291255	-96.508014	1267.189777	-257.984320	13.060763	1099.997968	-43.093472	-32.656971	1130.370756	-401.071331	137.634468	1008.101057	-48.766944	213.146126	964.430595	-59.216845	259.219898	892.399471	-59.365460	235.281364	988.928137	-76.865779	334.554807	780.544057	-92.824289	317.538512	765.001961	-195.563518	235.313999	679.644275	-68.713468	193.545724	602.416170	-81.998046	120.270883	555.199606	-77.264015	208.017716	591.307992	-119.037919	24.366839	459.225785	-74.413182	-45.524316	482.750312	-106.384575	118.004523	242.035740	-122.782083	44.543487	282.606536	-53.025770	62.690001	1038.520881	-408.854577	145.476480	1007.377393	-410.222980	166.634738	1036.408259	-403.812407	202.429260	939.060656	-404.703287	334.935777	821.562570	-373.913739	325.705504	798.382032	-278.959220	297.789965	676.948806	-399.089052	296.464535	592.745631	-380.063115	254.951773	512.796895	-389.455223	297.710986	595.877008	-339.314199	211.066371	383.040050	-393.832048	147.768064	328.384883	-363.923951	432.704508	378.944149	-354.076526	360.829986	334.938318	-420.472370	-259.348099	972.957052	-232.457752	-75.867610	83.338417	-438.380262	-82.749162	79.164625	-40.923712	
